<svg class="icon" style="width: 1em; height: 1em;vertical-align: middle;fill: currentColor;overflow: hidden;" viewBox="0 0 1024 1024" version="1.1" xmlns="http://www.w3.org/2000/svg"><path d="M183.9 580.3c10.5 0 19.1-8.6 19.1-19.1V128.6h432.6c10.5 0 19.1-8.6 19.1-19.1s-8.6-19.1-19.1-19.1H183.9c-10.5 0-19.1 8.6-19.1 19.1v451.7c0.1 10.6 8.6 19.1 19.1 19.1zM719.8 609h-39v-67.2c0-10.5-8.6-19.1-19.1-19.1s-19.1 8.6-19.1 19.1V628c0 10.5 8.6 19.1 19.1 19.1h40.5l24.5 297.4c0.8 10 9.2 17.5 19 17.5 0.5 0 1.1 0 1.6-0.1 10.5-0.9 18.3-10.1 17.4-20.6l-26-314.9c-0.7-9.8-8.9-17.4-18.9-17.4z" fill="#231815" /><path d="M937.2 327.9c-2.2-1.9-55.3-47.5-144-47.5s-141.8 45.6-144 47.5c-0.9 0.8-1.7 1.6-2.4 2.6l-59.2 75.2-121.3-117c-7.6-7.3-19.7-7.1-27 0.5-7.3 7.6-7.1 19.7 0.5 27l136.6 131.7c3.6 3.4 8.3 5.3 13.3 5.3 0.4 0 0.9 0 1.3-0.1 5.4-0.4 10.3-3 13.7-7.2l71-90.1c7.4-5.9 49.9-37.1 117.7-37.1 57.5 0 97.4 23 112.4 33.2V609h-39c-9.9 0-18.2 7.6-19 17.5l-26 314.9c-0.9 10.5 7 19.7 17.4 20.6 0.5 0.1 1.1 0.1 1.6 0.1 9.8 0 18.2-7.5 19-17.5l24.5-297.4h40.5c10.5 0 19.1-8.6 19.1-19.1V342.2c-0.1-5.5-2.5-10.7-6.7-14.3zM784.8 248.5c51.4 0 93.2-41.8 93.2-93.2S836.2 62 784.8 62s-93.2 41.8-93.2 93.2 41.8 93.3 93.2 93.3z m0-148.3c30.4 0 55 24.7 55 55 0 30.4-24.7 55.1-55 55.1-30.4 0-55-24.7-55-55.1 0-30.3 24.7-55 55-55zM554.5 613.8H99.3c-10.5 0-19.1 8.6-19.1 19.1 0 10.5 8.6 19.1 19.1 19.1h455.2c10.5 0 19.1-8.6 19.1-19.1 0-10.6-8.5-19.1-19.1-19.1z" fill="#231815" /></svg>