<svg version="1.1" xmlns="http://www.w3.org/2000/svg" xmlns:xlink="http://www.w3.org/1999/xlink" x="0px" y="0px" viewBox="0 0 16 16" enable-background="new 0 0 16 16" xml:space="preserve"  width="100%" height="100%"><rect id="svgEditorBackground" x="0" y="0" width="16" height="16" style="fill: none; stroke: none;"/>
<g opacity="0.5">
	<g id="_x33_56._Play">
		<g>
			<path fill="#666666" d="M15,4C12.8,0.2,7.9-1.1,4,1.1C0.2,3.3-1.1,8.2,1.1,12C3.3,15.9,8.2,17.2,12,15C15.9,12.8,17.2,7.9,15,4z      M11.2,13.6c-3.1,1.8-7,0.7-8.7-2.3c-1.8-3.1-0.7-7,2.3-8.7c3.1-1.8,7-0.7,8.7,2.3C15.3,7.9,14.3,11.8,11.2,13.6z M10.9,7.7     L6.7,5.3C6.3,5,6,5.2,6,5.7l0,4.8c0,0.4,0.3,0.6,0.7,0.4l4.2-2.4C11.3,8.3,11.3,7.9,10.9,7.7z"/>
		</g>
	</g>
</g>
<g>
	<path d="M214.546,59.611v161.165h158.724v41.148H214.546v162.537h-44.948V261.924H10.875v-41.148h158.723V59.611H214.546z"/>
</g>
<text fill="black" style="font-family: Arial; font-size: 20px;" x="2.28035" y="2.44457" id="e1_texte" transform="matrix(0.983414, 0, 0, 0.785715, -3.66322, 8.00793)">+</text></svg>