<?xml version="1.0" encoding="utf-8"?>
<!DOCTYPE svg PUBLIC "-//W3C//DTD SVG 1.1//EN" "http://www.w3.org/Graphics/SVG/1.1/DTD/svg11.dtd">
<svg version="1.1" id="Capa_1" xmlns="http://www.w3.org/2000/svg" xmlns:xlink="http://www.w3.org/1999/xlink">
<g opacity="0.5">
	<g id="_x33_56._Play">
		<g>
			<path fill="#666666" d="M573.75,243C489.6,97.65,302.175,47.925,153,132.075C7.65,216.225-42.075,403.65,42.075,549
				C126.225,698.175,313.65,747.9,459,663.75C608.175,579.6,657.9,392.175,573.75,243z M428.4,610.2
				c-118.575,68.85-267.75,26.774-332.775-87.976C26.775,403.65,68.85,254.475,183.6,189.45
				c118.575-68.85,267.75-26.775,332.775,87.975C585.225,392.175,546.975,541.35,428.4,610.2z M416.925,384.525l-160.65-91.8
				c-15.3-11.475-26.775-3.825-26.775,15.3v183.6c0,15.3,11.475,22.95,26.775,15.3l160.65-91.8
				C432.225,407.475,432.225,392.175,416.925,384.525z"/>
		</g>
	</g>
</g>
<text transform="matrix(1.0562 0 0 1 -9.5 346.6328)" font-family="'Arial'" font-size="468.8057">+</text>
</svg>
